<svg width="60" height="60" viewBox="0 0 60 60" fill="none" xmlns="http://www.w3.org/2000/svg">
<path fill-rule="evenodd" clip-rule="evenodd" d="M0.381324 0.368114C-0.420264 1.28169 0.22864 2.69012 1.41194 2.69012C2.51889 2.69012 3.16779 1.0533 2.36621 0.330057C1.83182 -0.0886643 0.763032 -0.0886736 0.381324 0.368114Z" fill="#12B9B0"/>
<path fill-rule="evenodd" clip-rule="evenodd" d="M19.0289 0.178004C17.9601 0.901249 18.4945 2.7284 19.8305 2.7284C21.0138 2.7284 21.6245 1.47224 20.8993 0.482535C20.5939 0.0257484 19.5251 -0.164586 19.0289 0.178004Z" fill="#12B9B0"/>
<path fill-rule="evenodd" clip-rule="evenodd" d="M37.4314 0.25415C36.8588 0.71094 36.7825 1.51032 37.2787 2.15744C37.8513 2.88069 38.691 2.91877 39.3399 2.23358C39.8743 1.66259 39.9125 1.0916 39.4544 0.482547C39.1109 -0.050375 38.0039 -0.164575 37.4314 0.25415Z" fill="#12B9B0"/>
<path fill-rule="evenodd" clip-rule="evenodd" d="M55.8112 0.482674C55.3913 1.09173 55.3913 1.51045 55.9257 2.19564C56.4982 2.91889 57.3762 2.91889 57.9869 2.15757C58.7885 1.16786 58.1396 0.0258789 56.8036 0.0258789C56.3456 0.0258789 56.0402 0.140081 55.8112 0.482674Z" fill="#12B9B0"/>
<path fill-rule="evenodd" clip-rule="evenodd" d="M0.725246 18.698C0.152683 19.0406 0 19.269 0 20.0683C0 21.2484 1.45049 21.8194 2.29025 20.9819C2.90098 20.3729 2.82464 19.4593 2.17574 18.9264C1.565 18.3934 1.33598 18.3554 0.725246 18.698Z" fill="#12B9B0"/>
<path fill-rule="evenodd" clip-rule="evenodd" d="M19.186 18.6599C18.2317 19.0406 18.1935 20.6393 19.1096 21.1342C19.7585 21.4768 20.2929 21.4006 20.751 20.8677C21.3617 20.2587 21.3235 19.5735 20.6746 18.9644C20.1784 18.3935 19.9494 18.3554 19.186 18.6599Z" fill="#12B9B0"/>
<path fill-rule="evenodd" clip-rule="evenodd" d="M37.8018 18.6599C37.3819 18.8503 36.9238 19.6116 36.9238 20.1445C36.9238 20.5251 37.9544 21.3626 38.4507 21.3626C39.0232 21.3626 39.8248 20.5251 39.8248 19.9161C39.8248 19.4212 39.2141 18.7361 38.6797 18.6219C38.4888 18.5457 38.069 18.5838 37.8018 18.6599Z" fill="#12B9B0"/>
<path fill-rule="evenodd" clip-rule="evenodd" d="M56.3481 18.698C55.5465 19.0787 55.3175 19.9542 55.8519 20.6774C56.4244 21.4387 57.226 21.5149 57.9131 20.8297C58.5238 20.2206 58.6002 19.6496 58.0658 19.0787C57.6077 18.5457 56.997 18.3935 56.3481 18.698Z" fill="#12B9B0"/>
<path fill-rule="evenodd" clip-rule="evenodd" d="M0.420007 37.5361C-0.38158 38.3354 0.152811 40.0484 1.22159 40.0484C1.41245 40.0484 1.83233 39.8581 2.17587 39.6297C2.90111 39.0587 2.90111 38.1832 2.17587 37.5741C1.48879 37.0031 0.954399 36.9651 0.420007 37.5361Z" fill="#12B9B0"/>
<path fill-rule="evenodd" clip-rule="evenodd" d="M18.9272 37.4599C17.9729 38.2212 18.5836 40.0103 19.7669 40.0103C19.9578 40.0103 20.3776 39.82 20.683 39.5916C21.4083 39.0206 21.4083 38.1451 20.683 37.536C19.9959 37.0031 19.5379 37.0031 18.9272 37.4599Z" fill="#12B9B0"/>
<path fill-rule="evenodd" clip-rule="evenodd" d="M37.4991 37.6122C37.1937 37.8786 36.9647 38.2973 36.9647 38.5638C36.9647 39.1348 37.8808 40.0103 38.4152 40.0103C38.9495 40.0103 39.8657 39.0967 39.8657 38.5638C39.8657 38.0309 38.9495 37.1173 38.4152 37.1173C38.2243 37.1173 37.7663 37.3457 37.4991 37.6122Z" fill="#12B9B0"/>
<path fill-rule="evenodd" clip-rule="evenodd" d="M56.1378 37.6122C55.8324 37.8786 55.6034 38.2973 55.6034 38.5638C55.6034 39.1348 56.5195 40.0103 57.0539 40.0103C57.6264 40.0103 58.5043 39.0967 58.5043 38.5638C58.5043 38.0309 57.5882 37.1173 57.0539 37.1173C56.863 37.1173 56.405 37.3457 56.1378 37.6122Z" fill="#12B9B0"/>
<path fill-rule="evenodd" clip-rule="evenodd" d="M0.45805 56.1286C0.152683 56.319 0 56.6235 0 57.1184C0 58.3365 1.14512 59.0216 2.06122 58.3365C3.58806 57.1945 2.02305 55.0247 0.45805 56.1286Z" fill="#12B9B0"/>
<path fill-rule="evenodd" clip-rule="evenodd" d="M18.8919 56.1668C18.3575 56.6235 18.243 57.7274 18.7392 58.1842C19.3499 58.7552 20.1133 58.7933 20.6859 58.2223C21.373 57.5752 21.373 56.8519 20.7622 56.2809C20.1515 55.6719 19.5408 55.6719 18.8919 56.1668Z" fill="#12B9B0"/>
<path fill-rule="evenodd" clip-rule="evenodd" d="M37.4589 56.319C36.8482 56.89 36.7718 57.461 37.3062 58.032C37.9169 58.7552 38.7185 58.8313 39.3293 58.1842C39.6346 57.8797 39.8637 57.461 39.8637 57.2326C39.8637 56.6616 38.9476 55.7861 38.4132 55.7861C38.1841 55.7861 37.7261 56.0145 37.4589 56.319Z" fill="#12B9B0"/>
<path fill-rule="evenodd" clip-rule="evenodd" d="M56.112 56.319C55.4249 56.9661 55.4249 57.5371 56.1502 58.2223C56.5319 58.641 56.7991 58.7172 57.219 58.641C57.906 58.4888 58.5168 57.8036 58.5168 57.2326C58.5168 56.6997 57.6007 55.8242 57.0663 55.8242C56.8373 55.7861 56.3792 56.0145 56.112 56.319Z" fill="#12B9B0"/>
</svg>
